<?xml version="1.0" encoding="UTF-8"?>
<svg id="Layer_1" data-name="Layer 1" xmlns="http://www.w3.org/2000/svg" viewBox="0 0 852.51 1137.21">
  <defs>
    <style>
      .cls-1 {
        fill: #fcebd3;
      }

      .cls-2 {
        fill: #fffded;
      }

      .cls-3 {
        fill: #ffc4b4;
      }

      .cls-4 {
        fill: #4a4d4c;
      }

      .cls-5 {
        fill: #fbedd6;
      }

      .cls-6 {
        fill: #ffc6b5;
      }

      .cls-7 {
        fill: #fefbec;
      }

      .cls-8 {
        fill: #fefffa;
      }

      .cls-9 {
        fill: #fdc5b6;
      }

      .cls-10 {
        fill: none;
        stroke: #35087c;
        stroke-miterlimit: 10;
      }

      .cls-11 {
        fill: #bcdde6;
      }

      .cls-12 {
        fill: #fdc5b4;
      }
    </style>
  </defs>
  <path class="cls-4" d="M852.47,493.45c-.61,15.59-21.63,177.94-26.83,216.16-5.19,38.21-20.18,145.22-25.07,182.21-4.89,37-7.97,63.47-11.69,70.32-4.24,7.8-16.86,11.58-47.58,26.94-30.73,15.37-135.63,65.01-183.33,87.71-47.69,22.7-120.9,60.42-130.27,60.42s-32.64-11.81-51.33-20.98c-18.69-9.17-214.23-104.56-258.8-125.66-44.56-21.09-45.71-23.16-48.46-40.35-2.75-17.2-25-168.77-31.87-211.42-6.88-42.65-30.81-203.31-34.86-228.23-4.05-24.91-5.2-41.96,15.44-41.58,20.64,.39,139.22,10.48,139.22,10.48,0,0-2.79-41.05,43.23-48.23,0,0-14.3-9.25-23.54-21.1-9.25-11.85-34.55-31.72-41.81-38.22-7.26-6.49-11.85-15.44-2.6-20.63,9.25-5.2,13.45-6.5,13.45-6.5,0,0-11.62-6.11-19.49-10.24s-13.69-10.79-2.45-18.35c10.03-6.74,31.95-17.12,45.41-33.47,0,0-19.88-32.64-28.29-69.33-8.4-36.69-12.68-81.63-9.32-114.5,3.36-32.86,8.56-59.12,18.65-81.47,10.09-22.36,26.48-20.64,49.99-9.18,23.5,11.47,62.52,42.96,90.49,75.22,27.98,32.25,47.85,68.71,47.85,68.71,0,0,66.19-20.56,142.01,18.88,0,0,46.32-36.54,96.46-60.69,50.14-24.15,98.86-31.57,114.04-23.08,15.59,8.71,19.87,31.49,15.44,74.75-4.43,43.26-26.9,104.1-60.38,151.03-.14,.19-.27,.38-.41,.57-10.54,8.22-18.19,16.14-24.05,23.12-13.55,16.14-9.06,23.18,24.05-23.12,13.92-10.87,32.88-22.25,59.41-32.67,46.32-18.19,106.86-7.03,128.87,1.37,22.01,8.41,17.54,15.75,5.16,28.36-12.38,12.61-21.78,24.08-19.49,47.01s8.71,37.03,7.8,66.04c-.92,29-15.71,47.92-15.71,47.92,0,0,19.11-.15,26.29-.15s14.98,6.34,14.37,21.93Z"/>
  <path class="cls-11" d="M840,491.73c0,.4,0,.8-.02,1.23-.55,13.97-20.61,170.02-26.72,214.96-2.05,15.01-5.65,41-9.46,68.52-5.93,42.77-12.65,91.26-15.62,113.74-.59,4.47-1.15,8.78-1.69,12.92-3.11,23.74-6.32,48.29-8.59,53.07-1.13,2.08-11.02,6.75-20.58,11.28-5.83,2.75-13.08,6.18-21.61,10.45-24.61,12.31-96.84,46.62-149.57,71.67-12.71,6.03-24.22,11.5-33.54,15.93-13.46,6.41-29.18,14.12-44.38,21.58-30.49,14.96-72.01,35.34-81.07,37.59-6.95-.8-29.98-12.14-41.21-17.66l-4.06-2c-21-10.31-214.63-104.75-258.96-125.73-20.7-9.8-32.12-15.56-37.14-19.85-2.57-2.2-3.03-3.05-4.33-11.19-1.02-6.39-4.75-31.45-9.47-63.18-7.64-51.29-18.1-121.53-22.4-148.25-3.79-23.49-12.8-83.13-20.76-135.75-6.58-43.61-12.28-81.26-14.1-92.49-2.48-15.23-2.92-24.17-1.3-26.57,.27-.13,1.42-.56,4.17-.51,19.99,.37,137.21,10.33,138.39,10.43,.94,.08,1.87,.06,2.79-.06,2.77,7.17,17.38,37.07,68.86,39.04,48.76,1.88,61.41-31.05,61.41-31.05,0,0,107.97,5.53,190.28,3.46,0,0,12.62,36.3,69.18,32.79,51.82-3.21,62.52-38.37,62.52-38.37,0,0,78.88-4.1,133.3-8.77,25.84-2.22,47.19-4.4,63-5.63,17.48-1.35,28.18-1.54,30.7,.67,.35,.16,1.98,2.14,1.98,7.73Z"/>
  <path class="cls-2" d="M591.22,411.29c3.52,7.03,17.66,12.68,17.66,12.68,0,0-16.59,2.76-33.25,9.71,0,0-26.98-9.63-60.61,4.74s-39.14,40.36-38.68,49.68c0,0-103.75,2.72-184.81-1.53,0,0,.93-22.18-21.56-39.44-23.16-17.77-35.77-12.49-48.84-21.44-13.07-8.94-25.91-17.65-36.91-31.07-11.01-13.41-30.39-28.31-38.53-33.13,0,0,13.07-3.32,19.34-7.6,6.27-4.28,4.59-11.62-4.2-15.21-8.79-3.6-17.2-8.95-21.33-15.75,0,0,17.12-4.28,35.47-23.69,18.32-19.4,32.54-48.04,52.31-64.87l.02-.02c-.42,.12-8.2,2.48-18.65,9.7-8.38,5.79-18.48,14.72-27.87,28.13,0,0-12.77-17.05-22.86-53.89-10.09-36.84-18.56-81.68-9.47-135.44,7.64-45.24,17.49-75.36,37.79-63.44,20.29,11.93,91.53,49.38,141.06,148.74,0,0,84.99-25.07,157.76,20.79,0,0,41.38-40.3,108-68.56,69.02-29.27,99.74-29.58,100.81,1.91,1.07,31.49-10.39,141.25-88.35,211.88,0,0-8.22-16.75-18.74-31.09-5.19-7.06-10.93-13.53-16.52-17.12h0c.41,.71,7.06,12.19,16.83,38.73,10.09,27.4,20.41,52.74,38.99,65.92,0,0-11.7,3.02-22.63,6.23s-15.74,7.41-12.23,14.45Z"/>
  <path class="cls-10" d="M234.65,218.86c.63,1.02,1.31,2.43,1.38,3.91-.04-.14-.56-1.66-1.38-3.91Z"/>
  <path class="cls-3" d="M236.03,222.78c.08,1.19-.24,2.42-1.25,3.54-3.5,3.84-7.46,8.02-7.46,8.02h-.02c-.42,.13-8.2,2.49-18.65,9.71-4.82-7.24-20.8-32.85-29.17-65.2-9.94-38.37-6.88-79.95,0-110.67,4.57-20.39,7.99-22.67,11.87-18.9h0c.22,.62,9.14,24.61,26.64,52.68,17.59,28.22,31.91,57.74,32.13,58.2-.5-.29-16.46-9.65-29.39-18.34-13.14-8.83-15.08-3.32-10.38,7.68,4.7,11.01,24.07,36,24.07,36,0,0-19.95-10.89-27.05-3.67-7.11,7.23,10.53,31.67,28.65,40.94h0Z"/>
  <path class="cls-4" d="M249.87,167.16c-12.15-7.03-25.37-15.36-25.37-15.36,0,0,6.57,9.47,10.31,15.59,3.75,6.11,19.72,29.27,19.95,33.25,.23,3.97-20.33-4.51-27.36-8.79-7.03-4.28-6.19,0-1.38,7.79,3.29,5.32,6.75,14.15,8.63,19.22,.82,2.25,1.34,3.77,1.38,3.91-18.12-9.27-35.76-33.71-28.65-40.94,7.1-7.22,27.05,3.67,27.05,3.67,0,0-19.37-24.99-24.07-36-4.7-11-2.76-16.51,10.38-7.68,12.93,8.69,28.89,18.05,29.39,18.34-.22-.46-14.54-29.98-32.13-58.2-17.5-28.07-26.42-52.06-26.64-52.67,.02,.02,.05,.05,.11,.1,1.48,1.37,16.88,15.75,25.54,29.57,9.09,14.52,20.63,34.16,29.12,49.75,8.48,15.6,17.73,41.81,19.11,45.25,1.37,3.44-3.22,.23-15.37-6.8Z"/>
  <path class="cls-12" d="M657.49,200.98c-7.11,22.59-26.47,58.01-44.99,78.19-12.66,13.79-21.44,20.83-25.72,23.91-5.19-7.06-10.93-13.53-16.52-17.12l-.02-.02-5.1-8.43s.4-1.51,2.17-3.89h.01c8.1,.73,32.22-12.83,34.17-20.74,1.95-7.91-8.78-13.95-25.75-10.17,0,0,11.93-10.09,24.31-19.03s16.62-19.57,8.71-20.85c-7.79-1.26-41.86,8.41-42.86,8.69,.69-.78,23.13-25.63,43.67-44.36,20.84-19.01,32.49-26.94,39.56-35.13,6.91-3.22,13.76-5.04,16.27-1.33,5.73,8.48-.8,47.7-7.91,70.28Z"/>
  <path class="cls-4" d="M649.15,132.01l-.02,.02c-7.07,8.19-18.72,16.12-39.56,35.13-20.54,18.73-42.98,43.58-43.67,44.36,1-.28,35.07-9.95,42.86-8.69,7.91,1.28,3.67,11.91-8.71,20.85s-24.31,19.03-24.31,19.03c16.97-3.78,27.7,2.26,25.75,10.17-1.95,7.91-26.07,21.47-34.17,20.74h-.01c-8.08-.74,14.63-17.15,16.92-20.74,2.29-3.6-24.99,.61-29.12-2.48-4.13-3.1,38.75-36,40.81-39.56,2.07-3.55-41.73,9.17-49.07,11.35-7.33,2.18,17.54-30.72,49.65-57.9,32.1-27.17,52.65-32.28,52.65-32.28Z"/>
  <path class="cls-6" d="M206.49,349.26c-2.58-3.32-3.5-7.72-2.13-11.69,1.19-3.48,4.01-6.84,10.51-6.38,12.99,.92,29.96,12.69,26.37,22.47-3.26,8.88-24.14,9.26-34.75-4.4Z"/>
  <path class="cls-9" d="M505.26,412.42c-6-.56-9.2-7.49-5.98-12.58,2.23-3.53,6.67-7.79,15.42-9.45,15.99-3.04,19.26,5.56,13.7,11.92-3.75,4.3-15.08,10.86-23.14,10.11Z"/>
  <circle class="cls-4" cx="275.18" cy="317.04" r="31.64"/>
  <circle class="cls-8" cx="288.47" cy="304.55" r="10.62"/>
  <ellipse class="cls-4" cx="472.05" cy="353.1" rx="32.43" ry="34" transform="translate(-83.94 157.18) rotate(-17.39)"/>
  <circle class="cls-8" cx="465.28" cy="335.69" r="10.62"/>
  <ellipse class="cls-4" cx="367.18" cy="361.43" rx="16.39" ry="22.61" transform="translate(-20.68 700.57) rotate(-85.71)"/>
  <path class="cls-4" d="M319.65,377.61c1.05-.23,2.09,.43,2.52,1.41,1.63,3.75,7.94,15.65,22.94,17.29,16.05,1.76,16.51-10.47,23.39-5.5,6.88,4.97,11.08,11.54,23.39,10.62s21.17-18.57,23.77-16.97,1.38,13.15-8.71,20.48-24.55,9.86-38.73-1.61c-1.11-.9-2.65-1.04-3.91-.34-3.52,1.95-11.81,5.08-25.62,2.04-17.33-3.83-24.78-26.17-19.04-27.41Z"/>
  <path class="cls-7" d="M814.18,417.17c-.22,6.26-1,12.07-2.14,17.39-5.34,24.95-18.58,39.17-18.58,39.17l-179.46,11.31c.07-23.71-12.15-35.31-15.41-37.98-.51-.42-.79-1.03-.79-1.69,0-1.1,.81-2.04,1.91-2.17,20.64-2.41,29.36-14.89,24.91-20.75-3.77-4.98-13.05-9.33-16.2-10.71-.65-.28-1.07-.93-1.07-1.64,0-.99,.81-1.78,1.8-1.78,25.9-.08,39.81-9.69,40.2-15.01,.4-5.45-1.89-8.6-11.64-13.02-1.4-.64-2.75-1.42-4.04-2.29-7.65-5.17-12.98-13.53-12.98-13.53,0,0,16.97-27.29,45.63-46.78,31.47-21.4,62.71-33.47,102.27-32.67,39.55,.8,62.48,12.27,62.48,12.27,0,0-9.71,11.35-21.17,24.72-11.47,13.38-18.19,23.39-16.21,26.3,1.99,2.9,13.91-7.57,13.91-7.57-5.04,29.04,7.8,40.81,6.58,76.43Z"/>
  <path class="cls-5" d="M812.04,434.56c-5.34,24.95-18.58,39.17-18.58,39.17l-179.46,11.31c.07-23.71-12.15-35.31-15.41-37.98-.51-.42-.79-1.03-.79-1.69,0-1.1,.81-2.04,1.91-2.17,20.64-2.41,29.36-14.89,24.91-20.75-3.77-4.98-13.05-9.33-16.2-10.71-.65-.28-1.07-.93-1.07-1.64,0-.99,.81-1.78,1.8-1.78,25.9-.08,39.81-9.69,40.2-15.01,.4-5.45-1.89-8.6-11.64-13.02-1.4-.64-2.75-1.42-4.04-2.29,3.85-2.26,10.71-4.98,21.87-5.5,19.72-.92,29.35-4.36,29.35-4.36,0,0,0,7.49,2.75,16.87,2.75,9.39,5.16,19.7-2.4,32.43,0,0,6.87-8.48,17.54-15.36,10.66-6.88,16.51-14.68,16.51-14.68,0,0,5.27,5.28,4.58,16.97-.69,11.69,5.62,23.85,2.87,31.99,0,0,8.02-2.64,17.77-13.42,9.74-10.77,15.25-14.56,21.78-15.25,0,0-2.18,11.58,2.98,23.05,5.16,11.46,10.44,16.85,17.43,15.02,6.99-1.84,8.71-9.06,7.11-16.28-1.61-7.23,3.44-12.38,9.28-13.76,0,0-3.52,11.03,8.95,18.84Z"/>
  <path class="cls-2" d="M514.79,491.85s-8.79,4.36-8.03,21.63c0,0-16.28-6.54-18.5-24.52s13.76-32.88,32.33-42.05,49.87-10.09,67.64,6.31,23.5,50.9-21.44,66.38c0,0,5.96-17.89-6.54-26.48,0,0,3.54,28.67-22.7,30.73-27.86,2.18-22.78-31.99-22.78-31.99Z"/>
  <path class="cls-2" d="M195.91,511.57s-26.14-10.55-25.34-33.36,23.04-39.67,52.62-38.98,52.85,20.75,56.06,40.7-20.98,31.64-20.98,31.64c0,0,2.75-15.94-7.22-23.39,0,0,3.9,31.76-22.59,31.07s-27.06-26.25-24.88-36.46c0,0-12.73,6.31-7.68,28.78Z"/>
  <path class="cls-10" d="M158.77,491.86c-.38-.98-.54-1.54-.54-1.54"/>
  <g>
    <path class="cls-4" d="M839.99,574.89c-.36-1.76-2.07-2.9-3.83-2.53-1.91,.39-192.8,38.92-388.38,40.69-1.79,.02-3.24,1.48-3.22,3.28,.02,1.79,1.47,3.22,3.25,3.22h.03c115.01-1.04,228.4-14.75,302.93-26l-4.23,26.97c-.28,1.77,.93,3.44,2.71,3.71,.17,.03,.34,.04,.51,.04,1.57,0,2.96-1.14,3.21-2.75l4.54-29c13.94-2.14,26.38-4.17,37.06-5.99l-5.01,34.01c-.26,1.78,.97,3.43,2.74,3.69,.16,.02,.32,.03,.48,.03,1.59,0,2.97-1.16,3.21-2.78l5.32-36.11c22.55-3.9,35.66-6.55,36.15-6.65,1.76-.36,2.89-2.08,2.53-3.83Z"/>
    <path class="cls-4" d="M420.69,1086.72l-35.15-17.41c-1.61-.8-3.56-.14-4.35,1.47-.8,1.61-.14,3.56,1.47,4.35l35.15,17.41c.46,.23,.96,.34,1.44,.34,1.2,0,2.35-.66,2.92-1.81,.8-1.61,.14-3.56-1.47-4.35Z"/>
    <path class="cls-4" d="M373.83,1063.51l-32.04-15.87c-1.61-.8-3.56-.14-4.35,1.47-.8,1.61-.14,3.56,1.47,4.35l32.04,15.87c.46,.23,.96,.34,1.44,.34,1.2,0,2.35-.66,2.92-1.81,.8-1.61,.14-3.56-1.47-4.35Z"/>
    <path class="cls-4" d="M329.31,1041.47l-32.49-16.09c-1.61-.8-3.56-.14-4.35,1.47-.8,1.61-.14,3.56,1.47,4.35l32.49,16.09c.46,.23,.96,.34,1.44,.34,1.2,0,2.35-.66,2.92-1.81,.8-1.61,.14-3.56-1.47-4.35Z"/>
    <path class="cls-4" d="M282.08,1018.08l-29.02-14.37c-1.61-.8-3.56-.14-4.35,1.47-.8,1.61-.14,3.56,1.47,4.35l29.02,14.37c.46,.23,.96,.34,1.44,.34,1.2,0,2.35-.66,2.92-1.81,.8-1.61,.14-3.56-1.47-4.35Z"/>
    <path class="cls-4" d="M236.61,995.57l-28.66-14.19c-1.61-.8-3.56-.14-4.35,1.47-.8,1.61-.14,3.56,1.47,4.35l28.66,14.19c.46,.23,.96,.34,1.44,.34,1.2,0,2.35-.66,2.92-1.81,.8-1.61,.14-3.56-1.47-4.35Z"/>
    <path class="cls-4" d="M197.22,976.07l-27.1-13.42c-1.61-.8-3.56-.14-4.35,1.47-.8,1.61-.14,3.56,1.47,4.35l27.1,13.42c.46,.23,.96,.34,1.44,.34,1.2,0,2.35-.66,2.92-1.81,.8-1.61,.14-3.56-1.47-4.35Z"/>
    <path class="cls-4" d="M158.36,956.82l-21.9-10.85c-1.61-.8-3.56-.14-4.35,1.47s-.14,3.56,1.47,4.35l21.9,10.85c.46,.23,.96,.34,1.44,.34,1.2,0,2.35-.66,2.92-1.81,.8-1.61,.14-3.56-1.47-4.35Z"/>
    <path class="cls-4" d="M126.94,941.27l-11.77-5.83-3.92-25.13c-.28-1.77-1.94-2.99-3.71-2.71-1.77,.28-2.99,1.94-2.71,3.71l4.18,26.79c.16,1.04,.82,1.94,1.77,2.41l13.28,6.58c.46,.23,.96,.34,1.44,.34,1.2,0,2.35-.66,2.92-1.81,.8-1.61,.14-3.56-1.47-4.35Z"/>
    <path class="cls-4" d="M106.88,903.41c1.77-.28,2.99-1.94,2.71-3.71l-5.57-35.68c-.28-1.77-1.94-2.99-3.71-2.71-1.77,.28-2.99,1.94-2.71,3.71l5.57,35.69c.25,1.6,1.63,2.75,3.21,2.75,.17,0,.34-.01,.51-.04Z"/>
    <path class="cls-4" d="M99.56,856.55c1.77-.28,2.99-1.94,2.71-3.71l-6.57-42.07c-.28-1.77-1.94-2.99-3.71-2.71-1.77,.28-2.99,1.94-2.71,3.71l6.57,42.07c.25,1.6,1.63,2.75,3.21,2.75,.17,0,.34-.01,.51-.04Z"/>
    <path class="cls-4" d="M91.52,805.06c1.77-.28,2.99-1.94,2.71-3.71l-5.85-37.46c-.28-1.77-1.94-2.99-3.71-2.71-1.77,.28-2.99,1.94-2.71,3.71l5.85,37.46c.25,1.6,1.63,2.75,3.21,2.75,.17,0,.34-.01,.51-.04Z"/>
    <path class="cls-4" d="M84.11,757.59c1.77-.28,2.99-1.94,2.71-3.71l-7.27-46.54c11.3,2.03,24.43,4.74,38.98,8.37,.26,.07,.53,.1,.79,.1,1.46,0,2.78-.99,3.15-2.47,.43-1.74-.63-3.5-2.37-3.94-16.54-4.12-31.29-7.08-43.65-9.2-.09-.02-.18-.03-.28-.05-24.68-4.23-39.69-5.09-39.91-5.1-1.8-.1-3.32,1.28-3.42,3.07-.1,1.79,1.28,3.32,3.07,3.42,.21,.01,13.99,.81,36.87,4.62l7.61,48.72c.25,1.6,1.63,2.75,3.21,2.75,.17,0,.34-.01,.51-.04Z"/>
    <path class="cls-4" d="M59.56,621.47c.25,1.6,1.63,2.75,3.21,2.75,.17,0,.34-.01,.51-.04,1.77-.28,2.99-1.94,2.71-3.71l-5.05-32.32c10.36,1.67,22.41,3.54,35.92,5.5l5.42,33.16c.26,1.59,1.64,2.73,3.2,2.73,.17,0,.35-.01,.53-.04,1.77-.29,2.97-1.96,2.68-3.73l-5.09-31.14c77.54,11.07,199.09,24.75,327.34,24.99h0c1.79,0,3.25-1.45,3.25-3.24,0-1.79-1.45-3.25-3.24-3.26-214.15-.41-409.56-38.38-411.51-38.77-1.76-.35-3.47,.8-3.82,2.56-.35,1.76,.8,3.47,2.56,3.82,.5,.1,13.45,2.62,35.99,6.33l5.38,34.42Z"/>
    <path class="cls-4" d="M771.79,763.56c-1.79-.26-3.43,.97-3.69,2.74l-5.2,35.33c-.26,1.78,.97,3.43,2.74,3.69,.16,.02,.32,.03,.48,.03,1.59,0,2.97-1.16,3.21-2.78l5.2-35.33c.26-1.78-.97-3.43-2.74-3.69Z"/>
    <path class="cls-4" d="M765,809.65c-1.79-.26-3.43,.97-3.69,2.74l-5.84,39.64c-.26,1.78,.97,3.43,2.74,3.69,.16,.02,.32,.03,.48,.03,1.59,0,2.97-1.16,3.21-2.78l5.84-39.64c.26-1.78-.97-3.43-2.74-3.69Z"/>
    <path class="cls-4" d="M757.46,860.86c-1.79-.26-3.43,.97-3.69,2.74l-5.24,35.57c-.26,1.78,.97,3.43,2.74,3.69,.16,.02,.32,.03,.48,.03,1.59,0,2.97-1.16,3.21-2.78l5.24-35.57c.26-1.78-.97-3.43-2.74-3.69Z"/>
    <path class="cls-4" d="M750.39,908.91c-1.79-.26-3.43,.97-3.69,2.74l-3.44,23.34-11.18,5.55c-1.61,.8-2.26,2.75-1.47,4.36,.57,1.14,1.72,1.81,2.91,1.81,.48,0,.98-.11,1.44-.34l12.71-6.31c.95-.47,1.62-1.38,1.77-2.44l3.68-25.03c.26-1.78-.97-3.43-2.74-3.69Z"/>
    <path class="cls-4" d="M721.95,945.57l-22.26,11.05c-1.61,.8-2.26,2.75-1.47,4.36,.57,1.14,1.72,1.81,2.91,1.81,.48,0,.98-.11,1.44-.34l22.26-11.05c1.61-.8,2.26-2.75,1.47-4.36-.8-1.61-2.75-2.27-4.36-1.47Z"/>
    <path class="cls-4" d="M688.87,961.99l-27.09,13.44c-1.61,.8-2.26,2.75-1.47,4.36,.57,1.14,1.72,1.81,2.91,1.81,.48,0,.98-.11,1.44-.34l27.09-13.44c1.61-.8,2.26-2.75,1.47-4.36-.8-1.61-2.75-2.27-4.36-1.47Z"/>
    <path class="cls-4" d="M649.96,981.29l-30.71,15.24c-1.61,.8-2.26,2.75-1.47,4.36,.57,1.14,1.72,1.81,2.91,1.81,.48,0,.98-.11,1.44-.34l30.71-15.24c1.61-.8,2.26-2.75,1.47-4.36-.8-1.61-2.75-2.27-4.36-1.47Z"/>
    <path class="cls-4" d="M606.18,1003.02l-31.84,15.8c-1.61,.8-2.26,2.75-1.47,4.36,.57,1.14,1.72,1.81,2.91,1.81,.48,0,.98-.11,1.44-.34l31.84-15.8c1.61-.8,2.26-2.75,1.47-4.36-.8-1.61-2.75-2.27-4.36-1.47Z"/>
    <path class="cls-4" d="M560.77,1025.56l-31.34,15.55c-1.61,.8-2.26,2.75-1.47,4.36,.57,1.14,1.72,1.81,2.91,1.81,.48,0,.98-.11,1.44-.34l31.34-15.55c1.61-.8,2.26-2.75,1.47-4.36-.8-1.61-2.74-2.27-4.36-1.47Z"/>
    <path class="cls-4" d="M519.12,1046.23l-32.33,16.05c-1.61,.8-2.26,2.75-1.47,4.36,.57,1.14,1.72,1.81,2.91,1.81,.48,0,.98-.11,1.44-.34l32.33-16.05c1.61-.8,2.26-2.75,1.47-4.36-.8-1.61-2.75-2.27-4.36-1.47Z"/>
    <path class="cls-4" d="M474.2,1068.52l-36.67,18.2c-1.61,.8-2.26,2.75-1.47,4.36,.57,1.14,1.72,1.81,2.91,1.81,.48,0,.98-.11,1.44-.34l36.67-18.2c1.61-.8,2.26-2.75,1.47-4.36-.8-1.61-2.75-2.27-4.36-1.47Z"/>
    <path class="cls-4" d="M488.63,1016.2l-36.51,18.24c-1.61,.8-2.26,2.75-1.45,4.36,.57,1.14,1.72,1.8,2.91,1.8,.49,0,.98-.11,1.45-.34l36.51-18.24c1.61-.8,2.26-2.75,1.45-4.36-.8-1.6-2.75-2.26-4.36-1.45Z"/>
    <path class="cls-4" d="M541.22,989.92l-36.78,18.38c-1.61,.8-2.26,2.75-1.45,4.36,.57,1.14,1.72,1.8,2.91,1.8,.49,0,.98-.11,1.45-.34l36.78-18.38c1.61-.8,2.26-2.75,1.45-4.36-.8-1.6-2.75-2.26-4.36-1.45Z"/>
    <path class="cls-4" d="M554.44,986.95c.57,1.14,1.72,1.8,2.91,1.8,.49,0,.98-.11,1.45-.34l35.53-17.75c1.61-.8,2.26-2.75,1.45-4.36-.8-1.6-2.75-2.26-4.36-1.45l-35.53,17.75c-1.61,.8-2.26,2.75-1.45,4.36Z"/>
    <path class="cls-4" d="M601.19,963.58c.57,1.14,1.72,1.8,2.91,1.8,.49,0,.98-.11,1.45-.34l31.8-15.89c1.61-.8,2.26-2.75,1.45-4.36-.8-1.6-2.75-2.26-4.36-1.45l-31.8,15.89c-1.61,.8-2.26,2.75-1.45,4.36Z"/>
    <path class="cls-4" d="M644.64,941.87c.57,1.14,1.72,1.8,2.91,1.8,.49,0,.98-.11,1.45-.34l31.14-15.56c1.61-.8,2.26-2.75,1.45-4.36-.8-1.6-2.75-2.26-4.36-1.45l-31.14,15.56c-1.61,.8-2.26,2.75-1.45,4.36Z"/>
    <path class="cls-4" d="M703.87,892.74l-2.7,17.25-11.36,5.68c-1.61,.8-2.26,2.75-1.45,4.36,.57,1.14,1.72,1.8,2.91,1.8,.49,0,.98-.11,1.45-.34l12.86-6.42c.94-.47,1.59-1.37,1.76-2.4l2.96-18.91c.28-1.77-.93-3.44-2.71-3.71-1.77-.28-3.44,.93-3.71,2.71Z"/>
    <path class="cls-4" d="M712.21,881.49l3.87-24.69c.28-1.77-.93-3.44-2.71-3.71-1.77-.27-3.44,.93-3.71,2.71l-3.87,24.69c-.28,1.77,.93,3.44,2.71,3.71,.17,.03,.34,.04,.51,.04,1.57,0,2.96-1.14,3.21-2.75Z"/>
    <path class="cls-4" d="M718.01,844.53l5.15-32.83c.28-1.77-.93-3.44-2.71-3.71-1.77-.28-3.44,.93-3.71,2.71l-5.15,32.83c-.28,1.77,.93,3.44,2.71,3.71,.17,.03,.34,.04,.51,.04,1.57,0,2.96-1.14,3.21-2.75Z"/>
    <path class="cls-4" d="M727.34,763.97c-1.77-.28-3.44,.94-3.71,2.71l-5.29,33.74c-.28,1.77,.93,3.44,2.71,3.71,.17,.03,.34,.04,.51,.04,1.57,0,2.96-1.14,3.21-2.75l5.29-33.74c.28-1.77-.93-3.44-2.71-3.71Z"/>
    <path class="cls-4" d="M728.82,757.85c1.57,0,2.96-1.14,3.21-2.75l5.11-32.58c.28-1.77-.93-3.44-2.71-3.71-1.77-.27-3.44,.94-3.71,2.71l-5.11,32.58c-.28,1.77,.93,3.44,2.71,3.71,.17,.03,.34,.04,.51,.04Z"/>
    <path class="cls-4" d="M748.56,628.59c-1.77-.27-3.44,.94-3.71,2.71l-6.43,41.03c-3.46,.72-6.91,1.47-10.32,2.25-1.75,.4-2.85,2.14-2.45,3.89,.34,1.51,1.68,2.53,3.17,2.53,.24,0,.48-.03,.72-.08,2.59-.59,5.19-1.15,7.81-1.71l-1.75,11.14c-.28,1.77,.93,3.44,2.71,3.71,.17,.03,.34,.04,.51,.04,1.57,0,2.96-1.14,3.21-2.75l2.12-13.56c2.88-.58,5.76-1.15,8.64-1.69,1.76-.33,2.93-2.03,2.59-3.79-.33-1.76-2.04-2.93-3.79-2.59-2.12,.4-4.24,.81-6.37,1.23l6.06-38.64c.28-1.77-.93-3.44-2.71-3.71Z"/>
    <path class="cls-4" d="M120.68,719.18c-1.77,.29-2.97,1.96-2.68,3.73l4.96,30.29c.26,1.59,1.64,2.73,3.2,2.73,.17,0,.35-.01,.53-.04,1.77-.29,2.97-1.96,2.68-3.73l-4.96-30.29c-.29-1.77-1.96-2.98-3.73-2.68Z"/>
    <path class="cls-4" d="M134.26,802.21c1.77-.29,2.97-1.96,2.68-3.73l-5.2-31.77c-.29-1.77-1.96-2.97-3.73-2.68-1.77,.29-2.97,1.96-2.68,3.73l5.2,31.77c.26,1.59,1.64,2.73,3.2,2.73,.17,0,.35-.01,.53-.04Z"/>
    <path class="cls-4" d="M135.31,808.61c-1.77,.29-2.97,1.96-2.68,3.73l4.94,30.23c.26,1.59,1.64,2.73,3.2,2.73,.17,0,.35-.01,.53-.04,1.77-.29,2.97-1.96,2.68-3.73l-4.94-30.23c-.29-1.77-1.97-2.97-3.73-2.68Z"/>
    <path class="cls-4" d="M144.35,883.99c.26,1.59,1.64,2.73,3.2,2.73,.17,0,.35-.01,.53-.04,1.77-.29,2.97-1.96,2.68-3.73l-4.62-28.25c-.29-1.77-1.96-2.98-3.73-2.68-1.77,.29-2.97,1.96-2.68,3.73l4.62,28.25Z"/>
    <path class="cls-4" d="M149.22,913.75c.17,1.06,.85,1.96,1.82,2.42l14.97,7.06c.45,.21,.92,.31,1.38,.31,1.22,0,2.39-.69,2.94-1.87,.77-1.62,.07-3.56-1.55-4.33l-13.43-6.33-2.9-17.75c-.29-1.77-1.96-2.98-3.73-2.68-1.77,.29-2.97,1.96-2.68,3.73l3.18,19.43Z"/>
    <path class="cls-4" d="M177.82,928.79l31.6,14.9c.45,.21,.92,.31,1.38,.31,1.22,0,2.39-.69,2.94-1.87,.77-1.62,.07-3.56-1.55-4.33l-31.6-14.9c-1.62-.76-3.56-.07-4.33,1.55-.77,1.62-.07,3.56,1.55,4.33Z"/>
    <path class="cls-4" d="M250.98,959.69c.77-1.62,.07-3.56-1.55-4.33l-27.27-12.86c-1.62-.76-3.56-.07-4.33,1.55-.77,1.62-.07,3.56,1.55,4.33l27.27,12.86c.45,.21,.92,.31,1.38,.31,1.22,0,2.39-.69,2.94-1.87Z"/>
    <path class="cls-4" d="M259.51,967.3l33.36,15.73c.45,.21,.92,.31,1.38,.31,1.22,0,2.39-.69,2.94-1.87,.77-1.62,.07-3.56-1.55-4.33l-33.36-15.73c-1.62-.77-3.56-.07-4.33,1.55-.77,1.62-.07,3.56,1.55,4.33Z"/>
    <path class="cls-4" d="M307.2,989.78l33.35,15.72c.45,.21,.92,.31,1.38,.31,1.22,0,2.39-.69,2.94-1.87,.77-1.62,.07-3.56-1.55-4.33l-33.35-15.72c-1.63-.77-3.56-.07-4.33,1.55-.77,1.62-.07,3.56,1.55,4.33Z"/>
    <path class="cls-4" d="M353.5,1011.61l31.04,14.63c.45,.21,.92,.31,1.38,.31,1.22,0,2.39-.69,2.94-1.87,.77-1.62,.07-3.56-1.55-4.33l-31.04-14.63c-1.62-.76-3.56-.07-4.33,1.55-.77,1.62-.07,3.56,1.55,4.33Z"/>
    <path class="cls-4" d="M432.03,1041.44l-32.11-15.14c-1.62-.76-3.56-.07-4.33,1.55-.77,1.62-.07,3.56,1.55,4.33l32.11,15.14c.45,.21,.92,.31,1.38,.31,1.22,0,2.39-.69,2.94-1.87,.77-1.62,.07-3.56-1.55-4.33Z"/>
    <path class="cls-4" d="M738.12,571.54c.25,1.6,1.63,2.75,3.21,2.75,.17,0,.33-.01,.5-.04,8.97-1.4,17.97-2.9,26.75-4.45,1.77-.31,2.95-2,2.63-3.77-.31-1.77-2-2.95-3.77-2.64-8.74,1.54-17.7,3.03-26.62,4.43-1.77,.28-2.99,1.94-2.71,3.71Z"/>
    <path class="cls-4" d="M693.36,580.95c.13,0,.27,0,.4-.02,10.29-1.26,20.62-2.63,30.68-4.08,1.78-.26,3.01-1.9,2.75-3.68-.25-1.78-1.89-3.01-3.68-2.76-10.02,1.44-20.3,2.8-30.55,4.06-1.78,.22-3.05,1.84-2.83,3.62,.2,1.65,1.6,2.85,3.22,2.85Z"/>
    <path class="cls-4" d="M672.85,576.81c-9.17,1.01-18.57,1.95-27.91,2.82-1.79,.17-3.1,1.75-2.94,3.54,.16,1.69,1.57,2.95,3.23,2.95,.1,0,.2,0,.3-.01,9.38-.87,18.81-1.82,28.02-2.83,1.78-.2,3.07-1.8,2.88-3.58s-1.8-3.07-3.58-2.88Z"/>
    <path class="cls-4" d="M593.54,583.63c-1.79,.11-3.15,1.66-3.04,3.45,.11,1.72,1.54,3.04,3.24,3.04,.07,0,.14,0,.21,0,11.08-.71,22.21-1.51,33.09-2.4,1.79-.15,3.12-1.72,2.97-3.5-.15-1.79-1.71-3.12-3.5-2.97-10.84,.89-21.94,1.69-32.98,2.4Z"/>
    <path class="cls-4" d="M545.14,592.61s.08,0,.13,0c10.67-.41,21.39-.91,31.85-1.49,1.79-.1,3.17-1.63,3.07-3.42s-1.62-3.17-3.42-3.07c-10.43,.57-21.11,1.07-31.74,1.48-1.79,.07-3.19,1.58-3.12,3.37,.07,1.75,1.51,3.12,3.25,3.12Z"/>
    <path class="cls-4" d="M490.91,590.76c.03,1.78,1.48,3.2,3.25,3.2,.02,0,.03,0,.05,0,10.69-.16,21.45-.4,32-.71,1.79-.05,3.21-1.55,3.15-3.34-.05-1.79-1.57-3.19-3.34-3.15-10.52,.31-21.25,.55-31.9,.7-1.79,.03-3.23,1.5-3.2,3.3Z"/>
    <path class="cls-4" d="M444.22,594.14c5.58,.04,11.18,.06,16.76,.06s11.23-.02,16.77-.06c1.79-.01,3.24-1.48,3.23-3.27-.01-1.79-1.47-3.23-3.25-3.23h-.02c-11.01,.08-22.25,.08-33.43,0h-.02c-1.78,0-3.24,1.44-3.25,3.23-.01,1.79,1.43,3.26,3.23,3.27Z"/>
    <path class="cls-4" d="M401.22,586.94c-1.83-.03-3.29,1.37-3.33,3.17-.04,1.79,1.37,3.29,3.17,3.33,9.58,.24,19.26,.43,28.77,.55,.01,0,.03,0,.04,0,1.77,0,3.22-1.43,3.25-3.21,.02-1.79-1.41-3.27-3.21-3.29-9.48-.13-19.14-.31-28.69-.55Z"/>
    <path class="cls-4" d="M354.08,588.57c-.08,1.79,1.32,3.31,3.11,3.39,9.73,.42,19.55,.78,29.17,1.08,.03,0,.07,0,.1,0,1.75,0,3.19-1.39,3.25-3.15,.06-1.79-1.35-3.29-3.15-3.35-9.6-.3-19.39-.66-29.09-1.07-1.78-.08-3.31,1.31-3.39,3.11Z"/>
    <path class="cls-4" d="M311.11,583.06c-1.79-.1-3.33,1.26-3.44,3.05-.11,1.79,1.26,3.33,3.05,3.44,10.51,.64,21.13,1.22,31.56,1.72,.05,0,.11,0,.16,0,1.72,0,3.16-1.35,3.24-3.09,.09-1.79-1.3-3.32-3.09-3.4-10.4-.5-21-1.08-31.48-1.72Z"/>
    <path class="cls-4" d="M261.07,586.06c11.33,.91,22.85,1.75,34.24,2.51,.07,0,.15,0,.22,0,1.7,0,3.12-1.32,3.24-3.03,.12-1.79-1.24-3.34-3.03-3.46-11.36-.76-22.86-1.6-34.16-2.5-1.79-.14-3.36,1.19-3.5,2.98-.14,1.79,1.19,3.36,2.98,3.5Z"/>
    <path class="cls-4" d="M215.53,582.01c9.89,.97,20,1.9,30.04,2.76,.09,0,.19,.01,.28,.01,1.67,0,3.09-1.28,3.23-2.97,.15-1.79-1.17-3.36-2.96-3.52-10.02-.86-20.1-1.79-29.96-2.75-1.8-.18-3.38,1.13-3.55,2.92-.18,1.79,1.13,3.38,2.92,3.55Z"/>
    <path class="cls-4" d="M163.03,573.01c-.21,1.78,1.06,3.4,2.84,3.61,11.31,1.35,23.03,2.66,34.83,3.89,.11,.01,.23,.02,.34,.02,1.64,0,3.05-1.24,3.23-2.91,.19-1.79-1.11-3.38-2.9-3.57-11.77-1.22-23.45-2.53-34.73-3.88-1.78-.21-3.4,1.06-3.61,2.84Z"/>
    <path class="cls-4" d="M115.15,569.81c.12,.02,12.68,2.02,34.66,4.83,.14,.02,.28,.03,.42,.03,1.61,0,3.01-1.2,3.22-2.84,.23-1.78-1.03-3.41-2.81-3.64-21.86-2.79-34.33-4.78-34.46-4.8-1.77-.29-3.44,.92-3.72,2.69-.28,1.77,.92,3.44,2.69,3.72Z"/>
    <path class="cls-4" d="M824.65,660.23c-11.64,.85-23.31,2.02-34.87,3.49l4.78-32.47c.26-1.78-.97-3.43-2.74-3.69-1.79-.26-3.43,.97-3.69,2.74l-5.05,34.3c-4.46,.61-8.89,1.27-13.31,1.96-1.77,.28-2.98,1.95-2.7,3.72,.25,1.6,1.63,2.74,3.21,2.74,.17,0,.34-.01,.51-.04,3.75-.59,7.52-1.15,11.3-1.68l-2.14,14.54c-.26,1.78,.97,3.43,2.74,3.69,.16,.02,.32,.03,.48,.03,1.59,0,2.97-1.16,3.21-2.78l2.41-16.39c12.05-1.56,24.21-2.8,36.33-3.69,1.79-.13,3.13-1.69,3-3.48s-1.68-3.13-3.48-3Z"/>
    <path class="cls-4" d="M685.27,692.51c.31,0,.63-.05,.94-.14,10.06-3.05,20.34-5.88,30.54-8.42,1.74-.43,2.8-2.2,2.37-3.94-.43-1.74-2.2-2.8-3.94-2.37-10.31,2.56-20.7,5.43-30.86,8.5-1.72,.52-2.69,2.33-2.17,4.05,.42,1.4,1.71,2.31,3.11,2.31Z"/>
    <path class="cls-4" d="M670.01,690.67c-12.71,4.18-25.44,8.82-37.84,13.79-1.67,.67-2.47,2.56-1.81,4.23,.51,1.27,1.73,2.04,3.02,2.04,.4,0,.81-.08,1.21-.23,12.27-4.92,24.87-9.51,37.45-13.65,1.71-.56,2.63-2.4,2.07-4.1-.56-1.71-2.4-2.64-4.1-2.07Z"/>
    <path class="cls-4" d="M589.76,730.18c.48,0,.97-.11,1.43-.33,10.49-5.16,21.27-10.09,32.04-14.66,1.65-.7,2.42-2.61,1.72-4.26-.7-1.65-2.61-2.42-4.26-1.72-10.88,4.61-21.78,9.6-32.37,14.81-1.61,.79-2.27,2.74-1.48,4.35,.57,1.15,1.72,1.82,2.92,1.82Z"/>
    <path class="cls-4" d="M577.1,729.67c-11.81,6.11-23.57,12.66-34.94,19.49-1.54,.92-2.04,2.92-1.11,4.46,.61,1.02,1.69,1.58,2.79,1.58,.57,0,1.15-.15,1.67-.46,11.26-6.76,22.89-13.25,34.58-19.29,1.59-.82,2.22-2.79,1.39-4.38-.82-1.59-2.79-2.22-4.38-1.39Z"/>
    <path class="cls-4" d="M533.29,754.6c-12.94,8.07-25.66,16.67-37.8,25.56-1.45,1.06-1.76,3.09-.7,4.54,.64,.87,1.62,1.33,2.62,1.33,.67,0,1.34-.2,1.92-.63,12.01-8.79,24.59-17.3,37.4-25.29,1.52-.95,1.99-2.95,1.04-4.48-.95-1.52-2.95-1.99-4.48-1.04Z"/>
    <path class="cls-4" d="M486.62,786.78c-11.19,8.52-21.93,17.35-31.93,26.23-1.34,1.19-1.46,3.25-.27,4.59,.64,.72,1.53,1.09,2.43,1.09,.77,0,1.54-.27,2.16-.82,9.87-8.77,20.49-17.49,31.55-25.92,1.43-1.09,1.7-3.13,.62-4.55-1.09-1.43-3.13-1.7-4.55-.62Z"/>
    <path class="cls-4" d="M445.03,821.83c-8.4,7.89-14.12,13.87-17.17,17.17-5.16-6.39-10.73-12.7-16.61-18.81-1.24-1.29-3.3-1.34-4.6-.09-1.29,1.24-1.34,3.3-.09,4.6,6.65,6.92,12.9,14.1,18.59,21.34,.6,.76,1.51,1.22,2.48,1.24,.02,0,.05,0,.07,0,.94,0,1.85-.41,2.46-1.13,.06-.08,6.65-7.69,19.31-19.58,1.31-1.23,1.37-3.29,.14-4.59s-3.29-1.37-4.59-.14Z"/>
    <path class="cls-4" d="M398.94,815.78c.86,0,1.72-.34,2.35-1.01,1.24-1.3,1.19-3.36-.11-4.59-9.7-9.23-20.4-18.27-31.8-26.87-1.43-1.08-3.47-.79-4.55,.64-1.08,1.43-.79,3.47,.64,4.55,11.21,8.45,21.72,17.32,31.23,26.38,.63,.6,1.44,.9,2.24,.9Z"/>
    <path class="cls-4" d="M357.61,781.98c1.02,0,2.02-.48,2.66-1.37,1.04-1.47,.69-3.49-.78-4.53-9.77-6.92-20.24-13.7-31.14-20.16-1.54-.92-3.54-.41-4.45,1.14-.92,1.54-.41,3.54,1.14,4.45,10.74,6.37,21.07,13.06,30.7,19.87,.57,.4,1.23,.6,1.87,.6Z"/>
    <path class="cls-4" d="M314.98,755.23c1.14,0,2.25-.6,2.84-1.67,.88-1.57,.31-3.55-1.25-4.42-11.07-6.18-22.83-12.22-34.93-17.93-1.62-.77-3.56-.07-4.33,1.55-.77,1.62-.07,3.56,1.55,4.33,11.97,5.66,23.59,11.62,34.54,17.73,.5,.28,1.04,.41,1.58,.41Z"/>
    <path class="cls-4" d="M269.76,732.56c1.24,0,2.42-.71,2.97-1.92,.74-1.64,0-3.56-1.63-4.3-10.78-4.86-22.07-9.59-33.57-14.06-1.67-.65-3.56,.18-4.21,1.85-.65,1.67,.18,3.56,1.85,4.21,11.39,4.43,22.58,9.12,33.26,13.93,.43,.2,.89,.29,1.33,.29Z"/>
    <path class="cls-4" d="M224.79,714.18c1.32,0,2.56-.81,3.05-2.12,.62-1.68-.23-3.55-1.92-4.18-9.73-3.61-19.85-7.13-30.06-10.47-1.71-.56-3.54,.37-4.1,2.08-.56,1.71,.37,3.54,2.08,4.1,10.13,3.31,20.16,6.81,29.82,10.39,.37,.14,.75,.2,1.13,.2Z"/>
    <path class="cls-4" d="M179.41,699c.32,.1,.64,.14,.96,.14,1.39,0,2.68-.9,3.1-2.29,.53-1.72-.43-3.53-2.15-4.06-11.54-3.55-23.47-6.96-35.46-10.13-1.74-.46-3.51,.57-3.97,2.31-.46,1.73,.57,3.51,2.31,3.97,11.9,3.15,23.75,6.54,35.21,10.06Z"/>
    <path class="cls-4" d="M130.03,685.21c1.46,0,2.79-.99,3.15-2.47,.43-1.74-.63-3.5-2.37-3.94-4.62-1.14-9.29-2.26-13.98-3.35l-6.52-39.86c-.29-1.77-1.96-2.98-3.73-2.68-1.77,.29-2.97,1.96-2.68,3.73l6.09,37.25c-2.68-.6-5.36-1.19-8.04-1.77-1.75-.38-3.48,.74-3.86,2.49-.38,1.75,.74,3.48,2.49,3.86,3.51,.76,7.02,1.54,10.54,2.34l1.72,10.54c.26,1.59,1.64,2.73,3.2,2.73,.17,0,.35-.01,.53-.04,1.77-.29,2.97-1.96,2.68-3.73l-1.29-7.91c3.78,.89,7.55,1.79,11.28,2.71,.26,.06,.52,.1,.78,.1Z"/>
    <path class="cls-4" d="M67.44,671.95l2.66,17c.25,1.6,1.63,2.75,3.21,2.75,.17,0,.34-.01,.51-.04,1.77-.28,2.99-1.94,2.71-3.71l-2.31-14.76c3.78,.7,7.77,1.47,11.96,2.31,.21,.04,.43,.06,.64,.06,1.52,0,2.88-1.07,3.18-2.62,.35-1.76-.79-3.47-2.55-3.82-5.06-1.01-9.84-1.92-14.3-2.74l-5.49-35.14c-.28-1.77-1.94-2.99-3.71-2.71-1.77,.28-2.99,1.94-2.71,3.71l5.14,32.92c-19.92-3.49-32.05-4.9-32.21-4.92-1.78-.2-3.39,1.08-3.6,2.86-.2,1.78,1.08,3.39,2.86,3.6,.16,.02,13.01,1.51,34.01,5.25Z"/>
    <path class="cls-4" d="M818.89,695.04c-29.83,.28-60.83,4.66-92.13,12.99-1.73,.46-2.77,2.24-2.3,3.98,.39,1.45,1.7,2.41,3.14,2.41,.28,0,.56-.04,.84-.11,16.38-4.36,32.68-7.61,48.75-9.75l-7.29,49.55c-.26,1.78,.97,3.43,2.74,3.69,.16,.02,.32,.03,.48,.03,1.59,0,2.97-1.16,3.21-2.78l7.56-51.33c11.84-1.35,23.55-2.09,35.07-2.2,1.79-.02,3.24-1.49,3.22-3.28-.02-1.79-1.45-3.23-3.28-3.22Z"/>
    <path class="cls-4" d="M682.22,725.9c.49,1.3,1.73,2.11,3.04,2.11,.38,0,.76-.07,1.14-.21,10.96-4.11,22.01-7.78,32.84-10.93,1.72-.5,2.71-2.3,2.21-4.03-.5-1.72-2.3-2.71-4.03-2.21-10.99,3.19-22.19,6.92-33.31,11.09-1.68,.63-2.53,2.5-1.9,4.18Z"/>
    <path class="cls-4" d="M671.69,726.57c-12.82,5.2-25.88,11.1-38.82,17.56-1.61,.8-2.26,2.75-1.46,4.36,.57,1.14,1.72,1.8,2.91,1.8,.49,0,.98-.11,1.45-.34,12.79-6.38,25.69-12.22,38.36-17.35,1.66-.67,2.47-2.57,1.79-4.23-.67-1.66-2.57-2.46-4.23-1.79Z"/>
    <path class="cls-4" d="M584.1,775.09c.61,1,1.68,1.55,2.78,1.55,.58,0,1.16-.15,1.69-.48,12.19-7.46,24.54-14.47,36.68-20.84,1.59-.83,2.2-2.8,1.37-4.39-.83-1.59-2.8-2.2-4.39-1.37-12.28,6.43-24.74,13.52-37.06,21.05-1.53,.94-2.01,2.94-1.08,4.47Z"/>
    <path class="cls-4" d="M537.59,806.41c.63,.88,1.63,1.35,2.64,1.35,.66,0,1.33-.2,1.9-.62,11.96-8.64,24.13-16.91,36.17-24.57,1.51-.96,1.96-2.97,1-4.49s-2.97-1.96-4.49-1c-12.15,7.73-24.43,16.07-36.49,24.79-1.45,1.05-1.78,3.08-.73,4.54Z"/>
    <path class="cls-4" d="M489.53,844.35c.64,.76,1.56,1.15,2.48,1.15,.74,0,1.49-.25,2.1-.77,12.1-10.23,24.59-20.18,37.11-29.56,1.44-1.08,1.73-3.11,.65-4.55-1.08-1.44-3.11-1.73-4.55-.65-12.62,9.46-25.21,19.49-37.41,29.8-1.37,1.16-1.54,3.21-.38,4.58Z"/>
    <path class="cls-4" d="M430.72,895.33c-10.76-12.37-22.17-24.39-33.97-35.75-1.29-1.25-3.35-1.21-4.6,.09-1.25,1.29-1.21,3.35,.09,4.6,12.52,12.06,24.61,24.87,35.93,38.06,.61,.71,1.49,1.12,2.43,1.13h.04c.92,0,1.8-.39,2.42-1.08,.19-.21,19.75-21.88,52.76-50.54,1.36-1.18,1.5-3.23,.32-4.58-1.18-1.36-3.23-1.5-4.58-.32-26.56,23.06-44.53,41.68-50.84,48.4Z"/>
    <path class="cls-4" d="M349.22,826.87c11.31,8.86,22.38,18.25,32.91,27.89,.62,.57,1.41,.85,2.19,.85,.88,0,1.76-.35,2.4-1.05,1.21-1.32,1.12-3.38-.2-4.59-10.65-9.76-21.85-19.25-33.29-28.21-1.41-1.11-3.46-.86-4.56,.55-1.11,1.41-.86,3.46,.55,4.56Z"/>
    <path class="cls-4" d="M305.23,795.63c11.1,7.12,22.05,14.69,32.54,22.49,.58,.43,1.26,.64,1.94,.64,.99,0,1.97-.45,2.61-1.31,1.07-1.44,.77-3.48-.67-4.55-10.61-7.89-21.68-15.54-32.91-22.74-1.51-.97-3.52-.53-4.49,.98-.97,1.51-.53,3.52,.98,4.49Z"/>
    <path class="cls-4" d="M298.93,787.81c.94-1.53,.45-3.53-1.08-4.47-11-6.73-22.41-13.21-33.92-19.27-1.59-.83-3.55-.23-4.39,1.36-.84,1.59-.23,3.55,1.36,4.39,11.39,5.99,22.67,12.41,33.55,19.06,.53,.32,1.11,.48,1.69,.48,1.09,0,2.16-.55,2.78-1.55Z"/>
    <path class="cls-4" d="M217.62,749.15c10.84,4.67,21.63,9.69,32.08,14.92,.47,.23,.96,.34,1.45,.34,1.19,0,2.34-.66,2.91-1.8,.8-1.6,.15-3.56-1.45-4.36-10.56-5.28-21.46-10.36-32.41-15.08-1.65-.71-3.56,.05-4.27,1.7s.05,3.56,1.7,4.27Z"/>
    <path class="cls-4" d="M205.86,743.97c1.28,0,2.5-.77,3.01-2.03,.67-1.66-.13-3.56-1.79-4.23-11.63-4.71-23.58-9.15-35.51-13.2-1.7-.58-3.54,.33-4.12,2.04-.58,1.7,.34,3.54,2.04,4.12,11.82,4,23.64,8.4,35.16,13.06,.4,.16,.81,.24,1.22,.24Z"/>
    <path class="cls-4" d="M160.01,727.37c1.38,0,2.65-.88,3.09-2.26,.55-1.71-.4-3.54-2.1-4.09-9.94-3.18-20.09-6.16-30.14-8.85-1.73-.46-3.52,.57-3.98,2.3-.46,1.73,.57,3.52,2.3,3.98,9.95,2.66,19.99,5.61,29.84,8.76,.33,.11,.66,.16,.99,.16Z"/>
    <path class="cls-4" d="M130.96,517.91c.25,.04,25.57,4.15,36.82,5.52,.13,.02,.27,.02,.4,.02,1.62,0,3.02-1.21,3.22-2.86,.22-1.78-1.05-3.4-2.83-3.62-11.12-1.35-36.31-5.44-36.56-5.48-1.77-.29-3.44,.91-3.73,2.69-.29,1.77,.91,3.44,2.69,3.73Z"/>
    <path class="cls-4" d="M703.73,519.38c.12,0,.24,0,.37-.02,11.89-1.33,23.71-2.79,35.14-4.34,1.78-.24,3.03-1.88,2.79-3.66-.24-1.78-1.88-3.03-3.66-2.78-11.38,1.54-23.16,3-35,4.32-1.78,.2-3.07,1.81-2.87,3.59,.19,1.66,1.59,2.89,3.23,2.89Z"/>
    <path class="cls-4" d="M644.65,524.98c.09,0,.17,0,.26,0,11.47-.9,22.92-1.9,34.04-2.99,1.79-.17,3.09-1.76,2.92-3.55-.17-1.79-1.77-3.09-3.55-2.92-11.08,1.08-22.49,2.08-33.92,2.97-1.79,.14-3.13,1.71-2.99,3.49,.13,1.7,1.56,3,3.24,3Z"/>
    <path class="cls-4" d="M589.05,528.57c.06,0,.11,0,.17,0,12.01-.61,24.03-1.33,35.71-2.13,1.79-.12,3.14-1.67,3.02-3.46s-1.67-3.13-3.46-3.02c-11.65,.79-23.62,1.51-35.6,2.12-1.79,.09-3.17,1.62-3.08,3.41,.09,1.74,1.52,3.08,3.24,3.08Z"/>
    <path class="cls-4" d="M455.08,531.58c3.69,.02,7.4,.02,11.1,.02,8.2,0,16.41-.04,24.5-.11,1.79-.02,3.24-1.49,3.22-3.28-.02-1.78-1.47-3.22-3.25-3.22h-.03c-11.72,.11-23.67,.14-35.51,.09h-.01c-1.79,0-3.24,1.45-3.25,3.24,0,1.79,1.44,3.26,3.24,3.26Z"/>
    <path class="cls-4" d="M398.46,530.74c11.52,.29,23.21,.51,34.74,.66,.01,0,.03,0,.04,0,1.78,0,3.23-1.43,3.25-3.21,.02-1.79-1.42-3.27-3.21-3.29-11.5-.14-23.16-.36-34.65-.66-1.83-.05-3.29,1.37-3.33,3.17s1.37,3.29,3.17,3.33Z"/>
    <path class="cls-4" d="M338.46,528.54c12.76,.62,25.9,1.15,39.04,1.59,.04,0,.07,0,.11,0,1.75,0,3.19-1.38,3.25-3.14,.06-1.79-1.35-3.3-3.14-3.36-13.11-.44-26.21-.97-38.94-1.59-1.78-.1-3.32,1.3-3.4,3.09s1.3,3.32,3.09,3.4Z"/>
    <path class="cls-4" d="M279.28,524.82c.13,.01,13.62,1.18,36.69,2.52,.06,0,.13,0,.19,0,1.71,0,3.14-1.33,3.24-3.06,.1-1.79-1.26-3.33-3.06-3.43-22.97-1.34-36.37-2.5-36.51-2.51-1.8-.15-3.36,1.17-3.52,2.96-.16,1.79,1.17,3.36,2.96,3.52Z"/>
  </g>
  <g>
    <circle class="cls-4" cx="70.79" cy="529.53" r="31.79"/>
    <circle class="cls-1" cx="70.79" cy="529.53" r="22.78"/>
  </g>
  <g>
    <circle class="cls-4" cx="783.16" cy="529.53" r="31.79"/>
    <circle class="cls-1" cx="783.16" cy="529.53" r="22.78"/>
  </g>
</svg>